<svg width="19" height="19" viewBox="0 0 19 19" fill="none" xmlns="http://www.w3.org/2000/svg">
<path d="M13.6523 10.9061C13.455 11.0973 13.3644 11.3738 13.4093 11.6449L14.0864 15.392C14.1435 15.7096 14.0095 16.031 13.7437 16.2146C13.4832 16.405 13.1367 16.4278 12.8526 16.2755L9.47943 14.5162C9.36214 14.4537 9.2319 14.4202 9.09862 14.4164H8.89223C8.82063 14.4271 8.75057 14.4499 8.68659 14.485L5.31266 16.2527C5.14587 16.3365 4.95699 16.3662 4.77192 16.3365C4.32105 16.2512 4.02021 15.8216 4.09409 15.3684L4.77192 11.6213C4.81685 11.3479 4.72622 11.0699 4.52897 10.8757L1.7788 8.21C1.54879 7.98684 1.46882 7.65173 1.57392 7.34937C1.67598 7.04777 1.93645 6.82766 2.25099 6.77816L6.03619 6.22903C6.32408 6.19933 6.57693 6.02416 6.70641 5.76521L8.37433 2.34555C8.41393 2.26938 8.46496 2.19932 8.52665 2.13991L8.5952 2.0866C8.63099 2.04699 8.67212 2.01424 8.71782 1.98759L8.80083 1.95712L8.93031 1.90381H9.25094C9.53731 1.93351 9.7894 2.10488 9.92116 2.36078L11.6112 5.76521C11.733 6.01426 11.9699 6.18714 12.2433 6.22903L16.0285 6.77816C16.3484 6.82385 16.6157 7.04472 16.7216 7.34937C16.8213 7.65478 16.7353 7.98989 16.5007 8.21L13.6523 10.9061Z" fill="#F6B76F" fill-opacity="0.5"/>
</svg>
