<svg width="19" height="19" viewBox="0 0 19 19" fill="none" xmlns="http://www.w3.org/2000/svg">
<path d="M13.6494 10.9061C13.4521 11.0973 13.3615 11.3738 13.4064 11.6449L14.0835 15.392C14.1406 15.7096 14.0065 16.031 13.7407 16.2146C13.4803 16.405 13.1337 16.4278 12.8497 16.2755L9.4765 14.5162C9.35921 14.4537 9.22897 14.4202 9.09569 14.4164H8.8893C8.8177 14.4271 8.74764 14.4499 8.68366 14.485L5.30973 16.2527C5.14294 16.3365 4.95406 16.3662 4.76899 16.3365C4.31812 16.2512 4.01728 15.8216 4.09116 15.3684L4.76899 11.6213C4.81392 11.3479 4.72329 11.0699 4.52604 10.8757L1.77587 8.21C1.54586 7.98684 1.46589 7.65173 1.57099 7.34937C1.67305 7.04777 1.93352 6.82766 2.24806 6.77816L6.03326 6.22903C6.32115 6.19933 6.574 6.02416 6.70348 5.76521L8.3714 2.34555C8.41101 2.26938 8.46203 2.19932 8.52372 2.13991L8.59227 2.0866C8.62806 2.04699 8.66919 2.01424 8.71489 1.98759L8.7979 1.95712L8.92738 1.90381H9.24801C9.53438 1.93351 9.78647 2.10488 9.91823 2.36078L11.6082 5.76521C11.7301 6.01426 11.967 6.18714 12.2404 6.22903L16.0256 6.77816C16.3455 6.82385 16.6128 7.04472 16.7186 7.34937C16.8184 7.65478 16.7323 7.98989 16.4978 8.21L13.6494 10.9061Z" fill="#F6B76F"/>
</svg>
